<svg xmlns="http://www.w3.org/2000/svg" width="57.1mm" height="54.05mm" viewBox="0 0 161.86 153.21">
  <defs>
    <style>
      .a {
        fill: #41ada8;
      }
    </style>
  </defs>
  <title>logo detail</title>
  <path d="M340.07,404.78A52.71,52.71,0,0,1,341.31,416c0,28.15-22,51-49.22,51s-49.22-22.82-49.22-51,22-51,49.22-51a48.74,48.74,0,0,1,41.17,23.08c4.52-1.59,9.1-3.39,13.63-5.47-11.05-19.43-31.45-32.48-54.8-32.48-35.11,0-63.57,29.48-63.57,65.85s28.46,65.84,63.57,65.84S355.67,452.4,355.67,416a67.75,67.75,0,0,0-2.07-16.68C349,401.23,344.43,403.06,340.07,404.78Z" transform="translate(-228.52 -328.68)"/>
  <path class="a" d="M384.36,346.34c0,.1-10.34,20.89-27,33.25-22.29,16.5-53.08,26.09-55,26.72,0-10.25,2.89-44.11,41-49.73,18.36-2.71,31.95-8.88,40.39-18.32a34.32,34.32,0,0,0,6.14-9.58,157.63,157.63,0,0,1,0,25.61c-1.19,14-5.06,32.91-16.75,43.2-30.46,26.83-57,18.13-67.17,13.05,18.49-7.06,36.67-12.41,52.4-24.22C382.55,368.13,384.32,346.44,384.36,346.34Z" transform="translate(-228.52 -328.68)"/>
</svg>
